<?xml version="1.0" standalone="no"?>
<!DOCTYPE svg PUBLIC "-//W3C//DTD SVG 20010904//EN"
 "http://www.w3.org/TR/2001/REC-SVG-20010904/DTD/svg10.dtd">
<svg version="1.0" xmlns="http://www.w3.org/2000/svg"
 width="498.000000pt" height="443.000000pt" viewBox="0 0 498.000000 443.000000"
 preserveAspectRatio="xMidYMid meet">

<g transform="translate(0.000000,443.000000) scale(0.100000,-0.100000)"
fill="#000000" stroke="none">
<path d="M1071 2919 c-10 -30 -12 -31 -35 -16 -22 15 -25 14 -51 -13 -23 -24
-26 -32 -15 -45 17 -20 6 -45 -20 -45 -19 0 -21 -5 -18 -42 2 -36 7 -44 26
-46 25 -4 27 -14 11 -44 -9 -17 -7 -25 15 -47 22 -22 29 -24 46 -13 29 18 37
15 44 -13 5 -21 12 -25 45 -25 33 0 40 4 45 25 7 27 25 32 44 13 9 -9 19 -5
42 17 20 19 27 32 20 39 -18 18 -11 44 13 48 18 2 23 10 25 46 3 39 1 42 -22
42 -30 0 -38 19 -18 43 14 16 13 20 -13 47 -26 27 -30 29 -50 16 -25 -17 -45
-5 -45 26 0 14 -8 18 -39 18 -35 0 -40 -3 -50 -31z m96 -113 c24 -23 25 -61 3
-89 -52 -66 -149 -1 -109 74 19 37 75 45 106 15z"/>
<path d="M1470 2603 c-71 -4 -90 -14 -71 -36 6 -8 9 -22 5 -31 -6 -14 15 -16
219 -16 l225 0 22 -67 c29 -89 48 -120 86 -144 30 -18 57 -19 757 -19 570 0
727 3 731 13 5 10 7 10 12 0 4 -10 43 -13 145 -13 l139 0 0 -32 c0 -18 -7 -91
-15 -163 -22 -194 -30 -175 69 -175 47 0 88 5 91 10 4 6 20 139 37 297 31 285
31 287 12 323 -13 23 -31 39 -54 47 -26 9 -318 12 -1190 11 -635 -1 -1184 -3
-1220 -5z m2015 -100 c-9 -72 -25 -93 -25 -32 0 53 9 89 22 89 6 0 7 -23 3
-57z m-207 -100 l-3 -58 -577 -3 -578 -2 0 44 c0 83 -56 76 587 76 l574 0 -3
-57z m281 13 c9 -11 8 -18 -5 -31 -15 -15 -19 -15 -32 -1 -17 17 -10 46 11 46
8 0 20 -6 26 -14z m135 -2 c7 -19 -10 -44 -30 -44 -16 0 -33 30 -27 48 7 18
50 15 57 -4z"/>
<path d="M1325 2518 c-12 -39 -11 -68 1 -68 22 0 36 37 24 60 -12 23 -19 25
-25 8z"/>
<path d="M1340 2386 c0 -8 -8 -16 -17 -18 -16 -3 -23 -53 -63 -428 l-45 -425
28 -3 c16 -2 31 -1 34 2 6 6 92 794 93 849 0 26 -4 37 -15 37 -8 0 -15 -6 -15
-14z"/>
<path d="M3686 1718 c-3 -13 -15 -119 -27 -235 l-22 -213 -224 0 c-190 0 -225
2 -229 15 -4 8 -16 15 -29 15 -13 0 -25 -7 -29 -15 -4 -11 -23 -15 -80 -15
-56 0 -75 4 -80 15 -3 8 -16 15 -30 15 -13 0 -26 -7 -30 -15 -5 -13 -59 -15
-404 -15 l-399 0 17 123 c9 67 22 136 29 152 26 63 118 137 196 156 17 4 -148
7 -365 7 -278 0 -404 -3 -427 -11 -119 -44 -176 -136 -194 -314 l-12 -113 -45
0 -44 0 7 83 c12 137 13 132 -14 135 -13 2 -27 0 -32 -5 -6 -6 -39 -250 -39
-289 0 -2 36 -4 79 -4 l80 0 -5 -32 c-4 -29 -23 -190 -41 -345 l-6 -53 -123 0
-124 0 0 -40 c0 -83 43 -148 125 -186 l50 -24 -382 0 c-333 0 -384 -2 -397
-16 -22 -22 -20 -50 6 -68 20 -14 230 -16 2038 -16 1808 0 2018 2 2038 16 23
16 28 39 12 64 -8 13 -83 16 -546 20 l-536 5 -85 245 c-92 269 -143 420 -143
426 0 2 133 4 295 4 l294 0 5 33 c3 17 15 122 26 232 11 110 23 219 26 243 l6
42 -91 0 c-86 0 -91 -1 -95 -22z m-1518 -56 c2 -7 -3 -12 -12 -12 -9 0 -16 7
-16 16 0 17 22 14 28 -4z m-68 -2 c0 -5 -4 -10 -10 -10 -5 0 -10 5 -10 10 0 6
5 10 10 10 6 0 10 -4 10 -10z m-332 -237 c-3 -15 -16 -19 -76 -21 -67 -3 -72
-1 -72 18 0 18 6 20 76 20 66 0 75 -2 72 -17z m80 -75 c3 -17 -10 -18 -156
-18 -156 0 -160 1 -155 20 5 20 12 20 157 18 134 -3 151 -5 154 -20z m126 -3
c-7 -16 -84 -22 -84 -7 0 16 14 22 51 22 30 0 37 -3 33 -15z m-134 -70 c0 -13
-24 -15 -155 -15 -131 0 -155 2 -155 15 0 13 24 15 155 15 131 0 155 -2 155
-15z m130 0 c0 -11 -11 -15 -40 -15 -29 0 -40 4 -40 15 0 11 11 15 40 15 29 0
40 -4 40 -15z m-142 -72 c-3 -16 -20 -18 -156 -21 -147 -2 -152 -2 -152 18 0
19 6 20 156 20 143 0 155 -1 152 -17z m132 2 c0 -11 -11 -15 -40 -15 -29 0
-40 4 -40 15 0 11 11 15 40 15 29 0 40 -4 40 -15z m910 -22 c0 -5 -50 -158
-112 -340 l-113 -333 -415 1 c-414 0 -415 0 -368 18 112 44 172 126 188 257 5
44 17 152 26 242 l17 162 389 0 c213 0 388 -3 388 -7z m77 1 c-3 -3 -12 -4
-19 -1 -8 3 -5 6 6 6 11 1 17 -2 13 -5z m126 -1 c-13 -2 -35 -2 -50 0 -16 2
-5 4 22 4 28 0 40 -2 28 -4z m94 1 c-3 -3 -12 -4 -19 -1 -8 3 -5 6 6 6 11 1
17 -2 13 -5z m-1437 -54 c0 -18 -7 -20 -75 -20 -56 0 -75 3 -75 13 0 23 11 27
82 27 61 0 68 -2 68 -20z m1254 -47 c25 -72 24 -73 -49 -73 -36 0 -65 3 -65 7
0 3 8 30 17 60 16 50 19 53 49 53 29 0 33 -4 48 -47z m86 38 c0 -4 -5 -23 -12
-42 l-11 -33 -13 34 c-17 49 -17 50 11 50 14 0 25 -4 25 -9z m134 -38 c25 -72
24 -73 -49 -73 -73 0 -74 1 -49 73 15 43 18 47 49 47 31 0 34 -4 49 -47z
m-1544 -28 c0 -12 -16 -15 -80 -15 -66 0 -78 2 -74 15 5 11 24 15 80 15 59 0
74 -3 74 -15z m280 0 c0 -12 -20 -15 -120 -15 -110 0 -132 5 -113 23 3 4 57 7
120 7 94 0 113 -3 113 -15z m-290 -70 c0 -12 -15 -15 -75 -15 -60 0 -75 3 -75
15 0 12 15 15 75 15 60 0 75 -3 75 -15z m288 3 c-3 -9 -39 -14 -121 -16 -100
-2 -117 0 -117 13 0 13 19 15 121 15 92 0 120 -3 117 -12z m1062 -79 c-10 -28
-21 -53 -23 -56 -3 -2 -40 -3 -84 -1 l-80 3 15 53 15 52 88 0 89 0 -20 -51z
m250 44 c0 -5 7 -29 15 -55 l14 -48 -84 0 -83 0 -16 47 c-9 26 -16 50 -16 55
0 4 38 8 85 8 47 0 85 -3 85 -7z m-1610 -38 c0 -12 -15 -15 -75 -15 -60 0 -75
3 -75 15 0 12 15 15 75 15 60 0 75 -3 75 -15z m288 -2 c-3 -16 -18 -18 -121
-21 -112 -3 -117 -2 -117 18 0 19 6 20 121 20 109 0 120 -2 117 -17z m1242
-395 c0 -5 -58 -8 -129 -8 l-129 0 27 73 c15 39 44 126 66 192 l40 120 62
-185 c35 -102 63 -188 63 -192z m-221 266 c1 -1 -5 -25 -14 -53 l-17 -51 -83
0 -84 0 21 60 20 60 76 -7 c43 -3 79 -7 81 -9z m365 -41 c9 -26 16 -50 16 -55
0 -4 -36 -8 -79 -8 l-79 0 -16 47 c-9 26 -16 50 -16 55 0 4 36 8 79 8 l79 0
16 -47z m-414 -120 c0 -3 -8 -30 -17 -60 l-17 -53 -83 0 c-46 0 -83 3 -83 7 0
3 8 30 17 60 l17 53 83 0 c46 0 83 -3 83 -7z m465 -26 c7 -18 17 -45 20 -60
l7 -27 -80 0 -80 0 -20 60 -21 60 80 0 80 0 14 -33z"/>
</g>
</svg>
